<?xml version="1.0" encoding="utf-8"?>
<!-- Generator: Adobe Illustrator 23.0.1, SVG Export Plug-In . SVG Version: 6.00 Build 0)  -->
<svg version="1.1" id="Color" xmlns="http://www.w3.org/2000/svg" xmlns:xlink="http://www.w3.org/1999/xlink" x="0px" y="0px"
	 viewBox="0 0 612 221.3" style="enable-background:new 0 0 612 221.3;" xml:space="preserve">
<style type="text/css">
	.st0{fill:#4E4E4E;}
	.st1{clip-path:url(#SVGID_2_);fill:#FF6B00;}
	.st2{clip-path:url(#SVGID_2_);fill:#F18A00;}
</style>
<g>
	<g>
		<path class="st0" d="M232.6,144.2h-5.5v-25.9h6c3,11.8,8.3,20,21.4,20c7.1,0,15.4-3.4,15.4-11.6c0-3.9-2.2-7-6-8.2l-24.5-7.2
			c-9-2.7-12.8-10.9-12.8-17.2c0-13,11.2-19.9,23.2-19.9c7.1,0,13.2,2.1,18.5,6.8l3-5.3h5.5v25.6h-6.2c-1.5-11.7-8.6-20.2-20.6-20.2
			c-6.5,0-13,2.8-13,10.3c0,3.4,2.3,6.9,6.2,8.2l25.4,7.9c6.4,2,11.1,7.8,11.1,17.1c0,14.4-11.2,21-24.5,21
			c-8.6,0-13.6-1.7-19.6-7.1L232.6,144.2z"/>
		<path class="st0" d="M280.6,93l18.6-1.7v38.1c0,5.4,4.5,7.9,9.2,7.9c6.5,0,13.4-5.8,13.4-12.7v-23.5c0-2-1.4-2.5-2.3-2.5h-6v-5.6
			l18.8-1.7v43.7c0,2,1.3,2.5,2.3,2.5h6.7v5.8h-19.1V139l0.6-5.2c-4,7.4-9.9,11.2-17.9,11.2c-7.8,0-15.7-4.6-16.2-13.2v-30.8
			c0-2-1.3-2.5-2.3-2.5h-5.9V93z"/>
		<path class="st0" d="M342.6,143.4v-6h5.4c1,0,2.8-0.6,2.8-3.7v-32.4c0-2-1.4-2.5-2.3-2.5H342v-5.6l19.3-1.7v5.9l-1.1,5.1
			c4-7.3,9.9-11.2,17.8-11.2c7.8,0,16.1,4.7,16.1,13.3v30c0,1.3,1.2,2.8,2.6,2.8h5.7v6h-26v-6h4.7c1.5,0,2.7-1.2,2.7-2.5v-28
			c0-5.3-4.5-7.8-9.2-7.8c-6.5,0-13.4,5.7-13.4,12.6v22c0,2.7,1.1,3.7,2.9,3.7h5.4v6H342.6z"/>
		<path class="st0" d="M409.3,143.4h-5.6V81.2c0-1.3-0.3-4.7-4.2-4.7h-4.9V71l19.1-2v31.2c3-6,9.6-9,16.3-9
			c14.6,0,21.8,12.2,21.8,25.8c0,14.4-7.6,27.7-23.4,27.7c-6.3,0-12.3-2.5-15.7-8.1L409.3,143.4z M413.3,118.8
			c0,9.1,2.6,19.2,13.4,19.2c11.4,0,13.5-11.2,13.5-20.8c0-9-2.4-19.1-13-19.1C415.6,98.1,413.3,109.4,413.3,118.8z"/>
		<path class="st0" d="M450.4,143.4v-6h5.3c1,0,2.9-0.6,2.9-3.7v-32.7c0-2-1.4-2.5-2.3-2.5h-6V93l18.7-1.7v42.4c0,2.7,1.1,3.7,3,3.7
			h5.4v6H450.4z M463.1,71.3c3.5,0,6.6,3.1,6.6,6.7c0,3.9-3.2,6.7-6.9,6.7c-3.6,0-6.4-2.8-6.4-6.4C456.4,74.6,459.2,71.3,463.1,71.3
			z"/>
		<path class="st0" d="M478.1,93.3l19.3-1.8v8l-1.1,5.6c3.7-6.5,7.5-13.6,16.9-13.6c6.1,0,10.2,3.3,10.2,9.4c0,4.5-2.3,7.4-7,7.4
			c-3.3,0-5.6-2.1-5.6-5.5c0-2,1.2-4,2.4-5.4c-8.3-0.5-15.9,10.1-15.9,18v18.2c0,2.7,1.1,3.7,2.9,3.7h9v6h-30.6v-6h5.4
			c1,0,2.8-0.6,2.8-3.7v-32.4c0-2-1.4-2.5-2.3-2.5h-6.4V93.3z"/>
		<path class="st0" d="M570.1,133.8c0,2.7,1.1,3.7,3,3.7h5v6h-17.4V138l1.1-5.3c-3.8,6.6-9.3,11.8-16.8,11.8
			c-15.6,0-23-11.2-23-25.5c0-14.5,7.1-27.7,22.1-27.7c7.1,0,12.5,1.5,15.7,7.8V78.8c0-2-1.3-2.5-2.3-2.5h-6.4v-5.6l19-1.7V133.8z
			 M547.1,137.9c6.6,0,13.2-8.6,13.2-16.4v-8.7c0-8.1-4.3-14.7-14.4-14.7c-10.6,0-12.2,12.4-12.2,21
			C533.6,128.3,535.9,137.9,547.1,137.9z"/>
	</g>
	<g>
		<defs>
			<path id="SVGID_1_" d="M144.1,138.8c5.8-0.3,15-3.9,15-3.9c0.5,5.1,13.3,9.6,19.9,11.7c4.2-7.2,7.3-15.1,9.1-23.6
				c-10.5,0.7-22,2.9-33.7,7.8c-41.9,17.5-55.9-30.5-114.7,0.9c0,0,7.3-11.4,22-14.9c0,0,2.4-14.6,15.6-17.2c0,0,8.4-1.2,13.5,1.1
				c0,0-14.1-17.3-5.7-47.5c0.2-0.6,17.9,43,52,55.4c22.4,8.1,31.5,2.1,52.3,5.2c0.2-2.1,0.3-4.3,0.3-6.5c0-43-34.8-77.8-77.8-77.8
				S34,64.4,34,107.4c0,43,34.8,77.8,77.8,77.8c28.1,0,52.7-14.9,66.4-37.2C151.6,148.6,144.1,138.8,144.1,138.8z"/>
		</defs>
		<clipPath id="SVGID_2_">
			<use xlink:href="#SVGID_1_"  style="overflow:visible;"/>
		</clipPath>
		<path class="st1" d="M89.8,154.8c-23,26.3-63.1,28.9-89.4,5.9c-26.3-23-28.9-63.1-5.9-89.4c23-26.3,63.1-29,89.4-5.9
			C110.2,88.4,112.8,128.4,89.8,154.8z"/>
		<path class="st1" d="M229.2,154.8c-23,26.3-63,28.9-89.4,5.9c-26.3-23-28.9-63.1-5.9-89.4c23-26.3,63.1-28.9,89.4-5.9
			C249.6,88.4,252.2,128.4,229.2,154.8z"/>
		<path class="st2" d="M187,161.6C146.5,207.9,76.1,212.6,29.8,172C-16.5,131.5-21.1,61.1,19.4,14.8C59.9-31.5,130.3-36.1,176.6,4.4
			C222.9,45,227.5,115.4,187,161.6z"/>
	</g>
	<g>
		<path class="st0" d="M585.4,68.8c1.5,0,2.9,0.4,4.3,1.1s2.5,1.9,3.3,3.3s1.2,2.9,1.2,4.4c0,1.5-0.4,3-1.2,4.4s-1.9,2.5-3.3,3.3
			s-2.9,1.2-4.4,1.2s-3-0.4-4.4-1.2s-2.5-1.9-3.3-3.3s-1.2-2.9-1.2-4.4c0-1.5,0.4-3,1.2-4.4s1.9-2.5,3.3-3.3S583.9,68.8,585.4,68.8z
			 M585.4,70.3c-1.2,0-2.5,0.3-3.6,1s-2.1,1.5-2.8,2.7s-1,2.4-1,3.7c0,1.3,0.3,2.5,1,3.7s1.6,2.1,2.7,2.7s2.4,1,3.7,1s2.5-0.3,3.7-1
			s2.1-1.6,2.7-2.7s1-2.4,1-3.7c0-1.3-0.3-2.5-1-3.7s-1.6-2.1-2.8-2.7S586.6,70.3,585.4,70.3z M581.5,82.6v-9.5h3.3
			c1.1,0,1.9,0.1,2.4,0.3s0.9,0.5,1.2,0.9s0.4,0.9,0.4,1.4c0,0.7-0.2,1.3-0.7,1.8s-1.2,0.8-2,0.9c0.3,0.1,0.6,0.3,0.8,0.5
			c0.4,0.4,0.9,1,1.4,1.9l1.2,1.9h-1.9l-0.8-1.5c-0.7-1.2-1.2-1.9-1.6-2.2c-0.3-0.2-0.7-0.3-1.2-0.3h-0.9v4H581.5z M583.1,77.2h1.9
			c0.9,0,1.5-0.1,1.8-0.4s0.5-0.6,0.5-1.1c0-0.3-0.1-0.5-0.2-0.8s-0.4-0.4-0.7-0.5s-0.8-0.2-1.5-0.2h-1.7V77.2z"/>
	</g>
</g>
</svg>
